<?xml version="1.0" encoding="utf-8"?>
<!-- Generator: Adobe Illustrator 20.0.0, SVG Export Plug-In . SVG Version: 6.00 Build 0)  -->
<svg version="1.1" id="Ebene_1" xmlns="http://www.w3.org/2000/svg" xmlns:xlink="http://www.w3.org/1999/xlink" x="0px" y="0px"
	 viewBox="0 0 582 998" style="enable-background:new 0 0 582 998;" xml:space="preserve">
<path d="M582,499c0,8.7-3.3,16.3-10,23L106,988c-6.7,6.7-14.3,10-23,10s-16.3-3.3-23-10l-50-50c-6.7-6.7-10-14.3-10-23
	s3.3-16.3,10-23l393-393L10,106C3.3,99.3,0,91.7,0,83s3.3-16.3,10-23l50-50C66.7,3.3,74.3,0,83,0s16.3,3.3,23,10l466,466
	C578.7,482.7,582,490.3,582,499z"/>
</svg>
