<?xml version="1.0" encoding="utf-8"?>
<!-- Generator: Adobe Illustrator 20.0.0, SVG Export Plug-In . SVG Version: 6.00 Build 0)  -->
<svg version="1.1" id="Ebene_1" xmlns="http://www.w3.org/2000/svg" xmlns:xlink="http://www.w3.org/1999/xlink" x="0px" y="0px"
	 viewBox="0 0 582 998" style="enable-background:new 0 0 582 998;" xml:space="preserve">
<path d="M582,83c0,8.7-3.3,16.3-10,23L179,499l393,393c6.7,6.7,10,14.3,10,23s-3.3,16.3-10,23l-50,50c-6.7,6.7-14.3,10-23,10
	s-16.3-3.3-23-10L10,522c-6.7-6.7-10-14.3-10-23s3.3-16.3,10-23L476,10c6.7-6.7,14.3-10,23-10s16.3,3.3,23,10l50,50
	C578.7,66.7,582,74.3,582,83z"/>
</svg>
