<?xml version="1.0" encoding="utf-8"?>
<!-- Generator: Adobe Illustrator 19.0.0, SVG Export Plug-In . SVG Version: 6.00 Build 0)  -->
<svg version="1.1" id="Ebene_1" xmlns="http://www.w3.org/2000/svg" xmlns:xlink="http://www.w3.org/1999/xlink" x="0px" y="0px"
	 viewBox="0 0 48 48" style="enable-background:new 0 0 48 48;" xml:space="preserve">
<style type="text/css">
	.st0{fill:#BD372F;}
</style>
<path class="st0" d="M47.5,40.1L37.3,22.2L27,4.4c-1.3-2.3-4.7-2.3-6.1,0L10.7,22.2L0.5,40.1c-1.3,2.3,0.3,5.3,3,5.3H24h20.5
	C47.2,45.3,48.9,42.4,47.5,40.1z M24,39.6c-2,0-3.6-1.6-3.6-3.6c0-2,1.6-3.6,3.6-3.6c2,0,3.6,1.6,3.6,3.6C27.6,38,26,39.6,24,39.6z
	 M28,17.8l-1.6,12.8c-0.1,0.3-0.2,0.5-0.3,0.6c-0.6-0.4-1.3-0.6-2-0.6c-0.7,0-1.4,0.2-2,0.6c-0.2-0.2-0.3-0.4-0.3-0.6l-1.6-12.8
	c-0.3-2.6,1.4-4.9,4-4.9S28.3,15.2,28,17.8z"/>
</svg>
