<?xml version="1.0" encoding="utf-8"?>
<!-- Generator: Adobe Illustrator 19.0.0, SVG Export Plug-In . SVG Version: 6.00 Build 0)  -->
<svg version="1.1" id="Ebene_1" xmlns="http://www.w3.org/2000/svg" xmlns:xlink="http://www.w3.org/1999/xlink" x="0px" y="0px"
	 viewBox="0 0 64.7 48" style="enable-background:new 0 0 64.7 48;" xml:space="preserve">
<style type="text/css">
	.st0{fill:#444444;}
</style>
<path id="XMLID_9_" class="st0" d="M64.7,24L50.9,10.9v6.2H47c-1.4-4.7-4.1-8.7-7.8-11.7c-0.1,0-0.1-0.1-0.2-0.1
	c-0.6-0.5-1.1-0.9-1.7-1.3C37.2,4,37.1,3.9,37,3.9c-0.6-0.4-1.2-0.7-1.8-1.1c-0.1,0-0.2-0.1-0.3-0.1c-0.6-0.3-1.2-0.6-1.9-0.9
	c-0.1,0-0.2-0.1-0.2-0.1c-0.7-0.3-1.3-0.5-2-0.7c-0.1,0-0.1,0-0.2,0c-0.7-0.2-1.4-0.4-2.1-0.5c0,0-0.1,0-0.1,0
	c-0.7-0.1-1.4-0.2-2.2-0.3c0,0-0.1,0-0.1,0C25.5,0,24.7,0,24,0s-1.5,0-2.2,0.1c0,0-0.1,0-0.1,0c-0.7,0.1-1.4,0.2-2.2,0.3
	c0,0-0.1,0-0.1,0C18.7,0.6,18,0.8,17.3,1c-0.1,0-0.1,0-0.2,0c-0.7,0.2-1.3,0.4-2,0.7c-0.1,0-0.2,0.1-0.2,0.1
	c-0.6,0.3-1.3,0.6-1.9,0.9c-0.1,0-0.2,0.1-0.3,0.1c-0.6,0.3-1.2,0.7-1.8,1.1C10.9,3.9,10.8,4,10.7,4C10.1,4.4,9.5,4.8,9,5.3
	c-0.1,0-0.1,0.1-0.2,0.1c-1.2,1-2.4,2.1-3.4,3.4c0,0.1-0.1,0.1-0.1,0.2C4.8,9.5,4.4,10.1,4,10.7C4,10.8,3.9,10.9,3.9,11
	c-0.4,0.6-0.7,1.2-1.1,1.8c0,0.1-0.1,0.2-0.1,0.3c-0.3,0.6-0.6,1.2-0.9,1.9c0,0.1-0.1,0.2-0.1,0.2c-0.3,0.7-0.5,1.3-0.7,2
	c0,0.1,0,0.1,0,0.2c-0.2,0.7-0.4,1.4-0.5,2.1c0,0,0,0.1,0,0.1c-0.1,0.7-0.2,1.4-0.3,2.2c0,0,0,0.1,0,0.1C0,22.5,0,23.3,0,24v0v0
	c0,0.7,0,1.5,0.1,2.2c0,0,0,0.1,0,0.1c0.1,0.7,0.2,1.4,0.3,2.2c0,0,0,0.1,0,0.1C0.6,29.3,0.8,30,1,30.7c0,0.1,0,0.1,0,0.2
	c0.2,0.7,0.4,1.3,0.7,2c0,0.1,0.1,0.2,0.1,0.2c0.3,0.6,0.6,1.3,0.9,1.9c0,0.1,0.1,0.2,0.1,0.3c0.3,0.6,0.7,1.2,1.1,1.8
	C3.9,37.1,4,37.2,4,37.3c0.4,0.6,0.8,1.2,1.3,1.7c0,0.1,0.1,0.1,0.1,0.2C9.8,44.6,16.5,48,24,48c10.9,0,20-7.2,23-17.1h3.9v6.2
	L64.7,24z M24,42.9c-5.2,0-10-2.1-13.4-5.5l26.8-26.8c1.9,1.8,3.4,4.1,4.3,6.5h-4.5v13.7h4.5C39,37.9,32.1,42.9,24,42.9z"/>
</svg>
