<?xml version="1.0"?>
<svg xmlns="http://www.w3.org/2000/svg" xmlns:xlink="http://www.w3.org/1999/xlink" id="Layer_1" data-name="Layer 1" viewBox="0 0 24 24" width="24" height="24">
  <defs>
    <linearGradient id="linear-gradient" x1="-82.71" y1="119.62" x2="-82.85" y2="111.97" gradientTransform="matrix(2.83, 0, 0, -2.83, 246.65, 339.93)" gradientUnits="userSpaceOnUse">
      <stop offset="0" stop-color="#fff"/>
      <stop offset="1" stop-color="#e2e2e2"/>
    </linearGradient>
    <linearGradient id="linear-gradient-2" x1="-53.67" y1="117.8" x2="-52.61" y2="118.87" gradientTransform="matrix(2.83, 0, 0, -2.83, 167.9, 339.93)" xlink:href="#linear-gradient"/>
    <linearGradient id="linear-gradient-3" x1="3.73" y1="19" x2="3.73" y2="19.92" gradientTransform="matrix(2.83, 0, 0, -2.83, -0.18, 70.68)" gradientUnits="userSpaceOnUse">
      <stop offset="0" stop-color="#0a2f3c"/>
      <stop offset="1" stop-color="#197492"/>
    </linearGradient>
    <linearGradient id="linear-gradient-4" x1="5.31" y1="19.51" x2="6.32" y2="19.51" gradientTransform="matrix(2.83, 0, 0, -2.83, -0.18, 70.68)" gradientUnits="userSpaceOnUse">
      <stop offset="0" stop-color="#1d4e9a"/>
      <stop offset="1" stop-color="#678fca"/>
    </linearGradient>
    <linearGradient id="linear-gradient-5" x1="5.05" y1="19.51" x2="5.73" y2="19.51" xlink:href="#linear-gradient-4"/>
    <linearGradient id="linear-gradient-6" x1="3.11" y1="19.02" x2="3.11" y2="20.11" gradientTransform="matrix(2.83, 0, 0, -2.83, -0.18, 70.68)" gradientUnits="userSpaceOnUse">
      <stop offset="0" stop-color="#0a1f26"/>
      <stop offset="1" stop-color="#165f78"/>
    </linearGradient>
  </defs>
  <title>audio</title>
  <g id="g6925">
    <g id="g6829">
      <path id="path6811" d="M3,23.25V0.75H16.5L21,5.25v18H3Z" transform="translate(0 0)" style="fill:url(#linear-gradient)"/>
      <rect id="rect6813" width="24" height="24" style="fill:none"/>
      <rect id="rect6815" x="3.75" y="23.25" width="17.25" height="0.75" style="fill:#818181;opacity:0.5;isolation:isolate"/>
      <rect id="rect6817" x="21" y="6" width="0.75" height="18" style="fill:#818181;opacity:0.5;isolation:isolate"/>
      <rect id="rect6819" x="16.5" y="6" width="4.5" height="0.75" style="fill:#818181;opacity:0.5;isolation:isolate"/>
      <path id="path6821" d="M21.75,6L21,5.25V6h0.75Z" transform="translate(0 0)" style="fill:#818181;opacity:0.5;isolation:isolate"/>
      <path id="path6823" d="M15.75,6L16.5,6.75V6H15.75Z" transform="translate(0 0)" style="fill:#818181;opacity:0.5;isolation:isolate"/>
      <path id="path6825" d="M3,23.25L3.75,24V23.25H3Z" transform="translate(0 0)" style="fill:#818181;opacity:0.5;isolation:isolate"/>
      <path id="path6827" d="M15.75,0.75H16.5L21,5.25V6H15.75V0.75Z" transform="translate(0 0)" style="fill:url(#linear-gradient-2)"/>
    </g>
    <g id="g6880">
      <g id="g6873">
        <path id="path7156" d="M13.14,10.5l-3.5,2.6h-2v4.55h2l3.5,2.6V10.5Z" transform="translate(0 0)" style="fill:url(#linear-gradient-3)"/>
        <path id="path7154" d="M15.24,10.77a0.38,0.38,0,0,0-.17.71,3.3,3.3,0,0,1,.93.85,4.77,4.77,0,0,1,1,3.05,4.75,4.75,0,0,1-1,3,3.32,3.32,0,0,1-.93.85,0.38,0.38,0,0,0,.33.68h0a4.24,4.24,0,0,0,1.17-1,5.55,5.55,0,0,0,1.13-3.51,5.57,5.57,0,0,0-1.13-3.52,4.26,4.26,0,0,0-1.17-1,0.38,0.38,0,0,0-.18,0h0Z" transform="translate(0 0)" style="fill:url(#linear-gradient-4)"/>
        <path id="path7150" d="M14.54,12.72a0.38,0.38,0,0,0-.17.71,1.49,1.49,0,0,1,.44.4,2.4,2.4,0,0,1,.49,1.54,2.38,2.38,0,0,1-.49,1.53,1.55,1.55,0,0,1-.44.41,0.38,0.38,0,0,0,.27.7l0.08,0a2.4,2.4,0,0,0,.69-0.6,3.41,3.41,0,0,0,0-4,2.49,2.49,0,0,0-.69-0.61,0.38,0.38,0,0,0-.18,0h0Z" transform="translate(0 0)" style="fill:url(#linear-gradient-5)"/>
      </g>
      <rect id="rect7166" x="7.61" y="13.1" width="2.04" height="4.55" style="fill:url(#linear-gradient-6)"/>
    </g>
  </g>
</svg>
