<?xml version="1.0"?>
<svg xmlns="http://www.w3.org/2000/svg" xmlns:xlink="http://www.w3.org/1999/xlink" id="Layer_1" data-name="Layer 1" viewBox="0 0 24 24" width="24" height="24">
  <defs>
    <linearGradient id="linear-gradient" x1="-220.89" y1="365.1" x2="-221.03" y2="357.45" gradientTransform="matrix(2.83, 0, 0, -2.83, 638.34, 1035.79)" gradientUnits="userSpaceOnUse">
      <stop offset="0" stop-color="#fff"/>
      <stop offset="1" stop-color="#e2e2e2"/>
    </linearGradient>
    <linearGradient id="linear-gradient-2" x1="-168.07" y1="256.74" x2="-168.03" y2="251.21" gradientTransform="matrix(2.83, 0, 0, -3.02, 488.35, 779.83)" gradientUnits="userSpaceOnUse">
      <stop offset="0" stop-color="#b0dde9"/>
      <stop offset="1" stop-color="#49b1cc"/>
    </linearGradient>
    <linearGradient id="linear-gradient-3" x1="-191.85" y1="363.28" x2="-190.79" y2="364.36" gradientTransform="matrix(2.83, 0, 0, -2.83, 559.59, 1035.79)" xlink:href="#linear-gradient"/>
  </defs>
  <title>image</title>
  <g id="g19341">
    <path id="path12639" d="M3,23.25V0.75H16.5L21,5.25v18H3Z" style="fill:url(#linear-gradient)"/>
    <rect id="rect13299" width="24" height="24" style="fill:none"/>
    <rect id="rect13301" x="3.75" y="23.25" width="17.25" height="0.75" style="fill:#818181;opacity:0.5;isolation:isolate"/>
    <rect id="rect13303" x="21" y="6" width="0.75" height="18" style="fill:#818181;opacity:0.5;isolation:isolate"/>
    <path id="path13309" d="M4.5,17.05V8.25h15v12H4.5v-3.2Z" style="opacity:0.5230000019073486;isolation:isolate;fill:url(#linear-gradient-2)"/>
    <path id="path13313" d="M4.5,17.25V21h15V18.52l-3-1.27s-2.33,2.11-3.75,2.11c-2.39,0-5.92-5-5.92-5Z" style="fill:#546d54"/>
    <rect id="rect13315" x="16.5" y="6" width="4.5" height="0.75" style="fill:#818181;opacity:0.5;isolation:isolate"/>
    <path id="path13623" d="M15.75,0.75H16.5L21,5.25V6H15.75V0.75Z" style="fill:url(#linear-gradient-3)"/>
    <rect id="rect13888" x="19.5" y="9" width="0.75" height="12.75" style="fill:#818181;opacity:0.5;isolation:isolate"/>
    <rect id="rect13890" x="5.25" y="21" width="14.25" height="0.75" style="fill:#818181;opacity:0.5;isolation:isolate"/>
    <path id="path13892" d="M3,23.25L3.75,24V23.25H3Z" style="fill:#818181;opacity:0.5;isolation:isolate"/>
    <path id="path13894" d="M4.5,21l0.75,0.75V21H4.5Z" style="fill:#818181;opacity:0.5;isolation:isolate"/>
    <path id="path13896" d="M15.75,6L16.5,6.75V6H15.75Z" style="fill:#818181;opacity:0.5;isolation:isolate"/>
    <path id="path13898" d="M21.75,6L21,5.25V6h0.75Z" style="fill:#818181;opacity:0.5;isolation:isolate"/>
    <path id="path13900" d="M20.25,9L19.5,8.25V9h0.75Z" style="fill:#818181;opacity:0.5;isolation:isolate"/>
    <circle id="circle13902" cx="13.07" cy="12.64" r="2.6" style="fill:#ffd42b"/>
  </g>
</svg>
