<?xml version="1.0"?>
<svg xmlns="http://www.w3.org/2000/svg" xmlns:xlink="http://www.w3.org/1999/xlink" id="Layer_1" data-name="Layer 1" viewBox="0 0 24 24" width="24" height="24">
  <defs>
    <linearGradient id="linear-gradient" x1="-229.73" y1="355.59" x2="-229.87" y2="347.93" gradientTransform="matrix(2.83, 0, 0, -2.83, 663.41, 1008.82)" gradientUnits="userSpaceOnUse">
      <stop offset="0" stop-color="#fff"/>
      <stop offset="1" stop-color="#e2e2e2"/>
    </linearGradient>
    <linearGradient id="linear-gradient-2" x1="-187.02" y1="281.66" x2="-187.02" y2="286.3" gradientTransform="matrix(2.5, 0, 0, -2.83, 476.6, 817.57)" gradientUnits="userSpaceOnUse">
      <stop offset="0" stop-color="#2e1118"/>
      <stop offset="1" stop-color="#720e2b"/>
    </linearGradient>
    <linearGradient id="linear-gradient-3" x1="-200.7" y1="353.77" x2="-199.63" y2="354.84" gradientTransform="matrix(2.83, 0, 0, -2.83, 584.66, 1008.82)" xlink:href="#linear-gradient"/>
  </defs>
  <title>indesign</title>
  <g id="g19372">
    <path id="path12645" d="M3,23.25V0.75H16.5L21,5.25v18H3Z" style="fill:url(#linear-gradient)"/>
    <rect id="rect13203" width="24" height="24" style="fill:none"/>
    <rect id="rect13213" x="2.25" y="6" width="13.16" height="13.16" style="fill:url(#linear-gradient-2)"/>
    <rect id="rect13215" x="15.41" y="6.88" width="0.88" height="13.16" style="fill:#818181;opacity:0.5;isolation:isolate"/>
    <rect id="rect13217" x="3.13" y="19.16" width="12.28" height="0.88" style="fill:#818181;opacity:0.5;isolation:isolate"/>
    <rect id="rect13219" x="3.75" y="23.25" width="17.25" height="0.75" style="fill:#818181;opacity:0.5;isolation:isolate"/>
    <rect id="rect13221" x="21" y="6" width="0.75" height="18" style="fill:#818181;opacity:0.5;isolation:isolate"/>
    <rect id="rect13223" x="16.5" y="6" width="4.5" height="0.75" style="fill:#818181;opacity:0.5;isolation:isolate"/>
    <g id="text13227" style="isolation:isolate">
      <g style="isolation:isolate">
        <path d="M4.8,16.23V8.93H6.52v7.3H4.8Z" style="fill:#f063a4"/>
        <path d="M12.87,16.23H11.4l-0.08-.65a1.9,1.9,0,0,1-.65.6,1.87,1.87,0,0,1-.94.23,1.79,1.79,0,0,1-1.58-.8,3.86,3.86,0,0,1-.54-2.19,4,4,0,0,1,.28-1.53,2.38,2.38,0,0,1,.81-1,2.05,2.05,0,0,1,1.23-.38,1.82,1.82,0,0,1,.7.14,1.89,1.89,0,0,1,.59.39V8.24l1.66,0.18v7.81Zm-1.66-1.66V12.14a1.67,1.67,0,0,0-.41-0.35,0.89,0.89,0,0,0-.46-0.12,0.85,0.85,0,0,0-.75.43,2.52,2.52,0,0,0-.27,1.33,2.83,2.83,0,0,0,.24,1.37,0.76,0.76,0,0,0,.69.39A1.14,1.14,0,0,0,11.21,14.57Z" style="fill:#f063a4"/>
      </g>
    </g>
    <path id="path13231" d="M21.75,6L21,5.25V6h0.75Z" style="fill:#818181;opacity:0.5;isolation:isolate"/>
    <path id="path13233" d="M15.75,6L16.5,6.75V6H15.75Z" style="fill:#818181;opacity:0.5;isolation:isolate"/>
    <path id="path13235" d="M16.29,6.88L15.41,6V6.88h0.88Z" style="fill:#818181;opacity:0.5;isolation:isolate"/>
    <path id="path13625" d="M15.75,0.75H16.5L21,5.25V6H15.75V0.75Z" style="fill:url(#linear-gradient-3)"/>
    <path id="path13819" d="M2.25,19.16L3.13,20V19.16H2.25Z" style="fill:#818181;opacity:0.5;isolation:isolate"/>
    <path id="path13821" d="M3,23.25L3.75,24V23.25H3Z" style="fill:#818181;opacity:0.5;isolation:isolate"/>
  </g>
</svg>
