<svg id="Layer_1" data-name="Layer 1"
  xmlns="http://www.w3.org/2000/svg"
  xmlns:xlink="http://www.w3.org/1999/xlink"  viewBox="0 0 24 24" width="24" height="24">
  <defs>
    <linearGradient id="linear-gradient" x1="-90.83" y1="111.57" x2="-90.97" y2="103.92" gradientTransform="matrix(2.83, 0, 0, -2.83, 269.66, 317.12)" gradientUnits="userSpaceOnUse">
      <stop offset="0" stop-color="#fff"/>
      <stop offset="1" stop-color="#e2e2e2"/>
    </linearGradient>
    <linearGradient id="linear-gradient-2" x1="-61.79" y1="109.75" x2="-60.72" y2="110.82" gradientTransform="matrix(2.83, 0, 0, -2.83, 190.91, 317.12)" xlink:href="#linear-gradient"/>
  </defs>
  <title>json</title>
  <path id="rect18866" d="M-18.09,12.36" transform="translate(0 0)" style="fill:none"/>
  <path id="rect18874" d="M-18.09,12.36" transform="translate(0 0)" style="fill:none"/>
  <g id="g21837">
    <rect id="rect13782" width="24" height="24" style="fill:none"/>
    <g id="g13999">
      <path id="path13981" d="M3,23.25V0.75H16.5L21,5.25v18H3Z" transform="translate(0 0)" style="fill:url(#linear-gradient)"/>
      <rect id="rect13983" width="24" height="24" style="fill:none"/>
      <rect id="rect13985" x="3.75" y="23.25" width="17.25" height="0.75" style="fill:gray;opacity:0.5;isolation:isolate"/>
      <rect id="rect13987" x="21" y="6" width="0.75" height="18" style="fill:gray;opacity:0.5;isolation:isolate"/>
      <rect id="rect13989" x="16.5" y="6" width="4.5" height="0.75" style="fill:gray;opacity:0.5;isolation:isolate"/>
      <path id="path13991" d="M21.75,6L21,5.25V6h0.75Z" transform="translate(0 0)" style="fill:gray;opacity:0.5;isolation:isolate"/>
      <path id="path13993" d="M15.75,6L16.5,6.75V6H15.75Z" transform="translate(0 0)" style="fill:gray;opacity:0.5;isolation:isolate"/>
      <path id="path13995" d="M3,23.25L3.75,24V23.25H3Z" transform="translate(0 0)" style="fill:gray;opacity:0.5;isolation:isolate"/>
      <path id="path13997" d="M15.75,0.75H16.5L21,5.25V6H15.75V0.75Z" transform="translate(0 0)" style="fill:url(#linear-gradient-2)"/>
    </g>
    <path id="path14009" d="M9.24,11.75q-1.06,0-1,.64L8.4,14a1.9,1.9,0,0,1,0,.21,0.86,0.86,0,0,1-.18.59,1,1,0,0,1-.57.27,1,1,0,0,1,.57.27,0.82,0.82,0,0,1,.18.58,2.13,2.13,0,0,1,0,.22L8.24,17.81a0.46,0.46,0,0,0,.24.5,1.65,1.65,0,0,0,.76.14V19a2.45,2.45,0,0,1-1.18-.25,0.88,0.88,0,0,1-.46-0.84,1.14,1.14,0,0,1,0-.16l0.17-1.52a1.15,1.15,0,0,0,0-.16,0.57,0.57,0,0,0-.26-0.52,1.93,1.93,0,0,0-1-.17V14.83a2,2,0,0,0,1-.16,0.57,0.57,0,0,0,.26-0.52,1.07,1.07,0,0,0,0-.15L7.62,12.46a1.13,1.13,0,0,1,0-.16,0.88,0.88,0,0,1,.46-0.84,2.45,2.45,0,0,1,1.18-.25v0.54Z" transform="translate(0 0)" style="fill:#4c4c4c;stroke:#4c4c4c;stroke-width:0.013229169882833958px"/>
    <path id="path14016" d="M14.76,11.21a2.45,2.45,0,0,1,1.18.25,0.88,0.88,0,0,1,.46.84,1.14,1.14,0,0,1,0,.16L16.22,14a0.62,0.62,0,0,0,0,.12,0.59,0.59,0,0,0,.28.54,1.89,1.89,0,0,0,.94.18v0.54a1.87,1.87,0,0,0-.94.18,0.6,0.6,0,0,0-.28.54,0.77,0.77,0,0,0,0,.13l0.17,1.52a1.14,1.14,0,0,1,0,.16,0.88,0.88,0,0,1-.46.84,2.45,2.45,0,0,1-1.18.25V18.45a1.65,1.65,0,0,0,.76-0.14,0.46,0.46,0,0,0,.24-0.5L15.6,16.17q0-.16,0-0.22a0.79,0.79,0,0,1,.2-0.59,1.16,1.16,0,0,1,.65-0.26,1.23,1.23,0,0,1-.64-0.28,0.83,0.83,0,0,1-.2-0.6,1.8,1.8,0,0,1,0-.2l0.16-1.64q0.06-.64-1-0.64V11.21Z" transform="translate(0 0)" style="fill:#4c4c4c;stroke:#4c4c4c;stroke-width:0.013229169882833958px"/>
  </g>
</svg>
