<?xml version="1.0" encoding="utf-8"?>
<!-- Generator: Adobe Illustrator 19.2.1, SVG Export Plug-In . SVG Version: 6.00 Build 0)  -->
<svg version="1.1" id="Layer_1" xmlns="http://www.w3.org/2000/svg" xmlns:xlink="http://www.w3.org/1999/xlink" x="0px" y="0px"
   width="24"
   height="24"
	 viewBox="0 0 24 24" style="enable-background:new 0 0 24 24;" xml:space="preserve">
<style type="text/css">
	.st0{fill:url(#path6111_1_);}
	.st1{opacity:0.5;fill:#818181;enable-background:new    ;}
	.st2{fill:url(#path6127_1_);}
	.st3{fill:#497EC1;}
</style>
<title>keynote</title>
<linearGradient id="path6111_1_" gradientUnits="userSpaceOnUse" x1="-81.7183" y1="-59.2663" x2="-81.8583" y2="-51.6163" gradientTransform="matrix(2.83 0 0 2.83 243.06 168.55)">
	<stop  offset="0" style="stop-color:#FFFFFF"/>
	<stop  offset="1" style="stop-color:#E2E2E2"/>
</linearGradient>
<path id="path6111" class="st0" d="M2.6,22.9V0.4h13.5l4.5,4.5v18H2.6z"/>
<rect id="rect6115" x="3.4" y="22.9" class="st1" width="17.2" height="0.8"/>
<rect id="rect6117" x="20.6" y="5.6" class="st1" width="0.8" height="18"/>
<rect id="rect6119" x="16.1" y="5.6" class="st1" width="4.5" height="0.8"/>
<path id="path6121" class="st1" d="M21.4,5.6l-0.8-0.8v0.8H21.4z"/>
<path id="path6123" class="st1" d="M15.4,5.6l0.8,0.8V5.6H15.4z"/>
<path id="path6125" class="st1" d="M2.6,22.9l0.8,0.8v-0.8H2.6z"/>
<linearGradient id="path6127_1_" gradientUnits="userSpaceOnUse" x1="-52.6286" y1="-57.5337" x2="-51.5686" y2="-58.6137" gradientTransform="matrix(2.83 0 0 2.83 164.31 168.55)">
	<stop  offset="0" style="stop-color:#FFFFFF"/>
	<stop  offset="1" style="stop-color:#E2E2E2"/>
</linearGradient>
<path id="path6127" class="st2" d="M15.4,0.4h0.8l4.5,4.5v0.8h-5.2V0.4H15.4z"/>
<rect id="rect6186" x="2.6" y="21.4" class="st3" width="18" height="1.5"/>
<rect id="rect6188" x="2.6" y="0.4" class="st3" width="12.8" height="1.5"/>
<rect id="rect6214" x="4.9" y="7.9" class="st3" width="13.5" height="0.8"/>
<rect id="rect6216" x="4.9" y="10.1" class="st3" width="13.5" height="0.8"/>
<rect id="rect6224" x="17.6" y="12.4" class="st3" width="0.8" height="7.5"/>
<rect id="rect6226" x="5.6" y="12.4" class="st3" width="12" height="0.8"/>
<rect id="rect6228" x="5.6" y="19.1" class="st3" width="12" height="0.8"/>
<rect id="rect6230" x="4.9" y="12.4" class="st3" width="0.8" height="7.5"/>
<rect id="rect6232" x="13.1" y="15.4" class="st3" width="0.8" height="3"/>
<rect id="rect6234" x="11.6" y="16.9" class="st3" width="0.8" height="1.5"/>
<rect id="rect6236" x="14.6" y="16" class="st3" width="0.8" height="2.2"/>
<rect id="rect6238" x="16.1" y="13.9" class="st3" width="0.8" height="4.5"/>
<path id="path6248" class="st3" d="M8.6,13.9c-1.2,0-2.2,1-2.2,2.2l0,0c0,1.2,1,2.2,2.2,2.2l0,0c1.2,0,2.2-1,2.2-2.2l0,0
	c0.1-1.2-0.8-2.1-2-2.2C8.7,13.8,8.7,13.8,8.6,13.9C8.6,13.9,8.6,13.9,8.6,13.9z M8.6,14.6c0.8,0,1.5,0.7,1.5,1.5l0,0
	c0,0.8-0.7,1.5-1.5,1.5l0,0c-0.8,0-1.5-0.7-1.5-1.5l0,0C7.1,15.2,7.8,14.6,8.6,14.6C8.6,14.5,8.6,14.5,8.6,14.6z"/>
</svg>
