<?xml version="1.0"?>
<svg xmlns="http://www.w3.org/2000/svg" xmlns:xlink="http://www.w3.org/1999/xlink" id="Layer_1" data-name="Layer 1" viewBox="0 0 24 24" width="24" height="24">
  <defs>
    <linearGradient id="linear-gradient" x1="-258.08" y1="346.6" x2="-258.22" y2="338.95" gradientTransform="matrix(2.83, 0, 0, -2.83, 743.78, 983.34)" gradientUnits="userSpaceOnUse">
      <stop offset="0" stop-color="#fff"/>
      <stop offset="1" stop-color="#e2e2e2"/>
    </linearGradient>
    <linearGradient id="linear-gradient-2" x1="-229.05" y1="344.78" x2="-227.98" y2="345.85" gradientTransform="matrix(2.83, 0, 0, -2.83, 665.03, 983.34)" xlink:href="#linear-gradient"/>
  </defs>
  <title>mindmanager</title>
  <g id="g19052">
    <path id="path12649" d="M3,23.25V0.75H16.5L21,5.25v18H3Z" style="fill:url(#linear-gradient)"/>
    <rect id="rect13583" width="24" height="24" style="fill:none"/>
    <rect id="rect13585" x="3.75" y="23.25" width="17.25" height="0.75" style="fill:#818181;opacity:0.5;isolation:isolate"/>
    <rect id="rect13587" x="21" y="6" width="0.75" height="18" style="fill:#818181;opacity:0.5;isolation:isolate"/>
    <rect id="rect13589" x="16.5" y="6" width="4.5" height="0.75" style="fill:#818181;opacity:0.5;isolation:isolate"/>
    <path id="path13591" d="M21.75,6L21,5.25V6h0.75Z" style="fill:#818181;opacity:0.5;isolation:isolate"/>
    <path id="path13593" d="M15.75,6L16.5,6.75V6H15.75Z" style="fill:#818181;opacity:0.5;isolation:isolate"/>
    <path id="path13595" d="M3,23.25L3.75,24V23.25H3Z" style="fill:#818181;opacity:0.5;isolation:isolate"/>
    <path id="path13597" d="M16.5,21L9,8.25H4.5V21h3l4.5-.75Z" style="fill:#e31e27"/>
    <path id="path13599" d="M7.5,21L15,8.25h4.5V21h-3L12,20.25Z" style="fill:#96a1aa"/>
    <path id="path13601" d="M12,11.55L7.5,21l4.5-.75L16.5,21Z" style="fill:#5c717c"/>
    <path id="path13629" d="M15.75,0.75H16.5L21,5.25V6H15.75V0.75Z" style="fill:url(#linear-gradient-2)"/>
  </g>
</svg>
