<?xml version="1.0" encoding="utf-8"?>
<!-- Generator: Adobe Illustrator 19.2.1, SVG Export Plug-In . SVG Version: 6.00 Build 0)  -->
<svg version="1.1" id="Layer_1" xmlns="http://www.w3.org/2000/svg" xmlns:xlink="http://www.w3.org/1999/xlink" x="0px" y="0px"
   width="24"
   height="24"
	 viewBox="0 0 24 24" style="enable-background:new 0 0 24 24;" xml:space="preserve">
<style type="text/css">
	.st0{fill:url(#path6135_1_);}
	.st1{opacity:0.5;fill:#818181;enable-background:new    ;}
	.st2{fill:url(#path6151_1_);}
	.st3{fill:#51B848;}
</style>
<title>numbers</title>
<desc>Created with Sketch.</desc>
<g id="Page-1">
	<g id="numbers">

			<linearGradient id="path6135_1_" gradientUnits="userSpaceOnUse" x1="0.6166" y1="23.8146" x2="0.5946" y2="23.1988" gradientTransform="matrix(18 0 0 -22.5 0.6 540.4)">
			<stop  offset="0" style="stop-color:#FFFFFF"/>
			<stop  offset="1" style="stop-color:#E2E2E2"/>
		</linearGradient>
		<polygon id="path6135" class="st0" points="2.5,22.8 2.5,0.3 16,0.3 20.5,4.8 20.5,22.8 		"/>
		<rect id="rect6139" x="3.3" y="22.8" class="st1" width="17.2" height="1"/>
		<rect id="rect6141" x="20.5" y="5.5" class="st1" width="1" height="18"/>
		<rect id="rect6143" x="16" y="5.5" class="st1" width="4.5" height="1"/>
		<polygon id="path6145" class="st1" points="21.3,5.5 20.5,4.7 20.5,5.5 		"/>
		<polygon id="path6147" class="st1" points="15.3,5.5 16.1,6.3 16.1,5.5 		"/>
		<polygon id="path6149" class="st1" points="2.5,22.8 3.3,23.6 3.3,22.8 		"/>

			<linearGradient id="path6151_1_" gradientUnits="userSpaceOnUse" x1="0.3611" y1="23.0263" x2="0.9324" y2="23.6029" gradientTransform="matrix(5.3 0 0 -5.3 13.4 127.6)">
			<stop  offset="0" style="stop-color:#FFFFFF"/>
			<stop  offset="1" style="stop-color:#E2E2E2"/>
		</linearGradient>
		<polygon id="path6151" class="st2" points="15.3,0.3 16.1,0.3 20.6,4.8 20.6,5.6 15.4,5.6 15.4,0.3 		"/>
		<rect id="rect6190" x="2.5" y="21.2" class="st3" width="18" height="1.5"/>
		<rect id="rect6192" x="2.5" y="0.3" class="st3" width="12.8" height="1.5"/>
		<rect id="rect6194" x="6.3" y="15.9" class="st3" width="3" height="3.8"/>
		<rect id="rect6196" x="10" y="12.2" class="st3" width="3" height="7.5"/>
		<rect id="rect6198" x="13.8" y="14.5" class="st3" width="3" height="5.2"/>
		<rect id="rect6200" x="4.8" y="7.8" class="st3" width="13.5" height="1"/>
		<rect id="rect6202" x="4.8" y="10" class="st3" width="13.5" height="1"/>
	</g>
</g>
</svg>
