<?xml version="1.0"?>
<svg xmlns="http://www.w3.org/2000/svg" xmlns:xlink="http://www.w3.org/1999/xlink" id="Layer_1" data-name="Layer 1" viewBox="0 0 24 24" width="24" height="24">
  <defs>
    <linearGradient id="linear-gradient" x1="-72.92" y1="101.36" x2="-73.06" y2="93.71" gradientTransform="matrix(2.83, 0, 0, -2.83, 218.9, 288.18)" gradientUnits="userSpaceOnUse">
      <stop offset="0" stop-color="#fff"/>
      <stop offset="1" stop-color="#e2e2e2"/>
    </linearGradient>
    <linearGradient id="linear-gradient-2" x1="-43.88" y1="99.54" x2="-42.82" y2="100.62" gradientTransform="matrix(2.83, 0, 0, -2.83, 140.15, 288.18)" xlink:href="#linear-gradient"/>
    <linearGradient id="linear-gradient-3" x1="3.36" y1="18.07" x2="3.36" y2="22.7" gradientTransform="matrix(2.83, 0, 0, -2.83, -0.85, 70.68)" gradientUnits="userSpaceOnUse">
      <stop offset="0" stop-color="#834278"/>
      <stop offset="1" stop-color="#ab579c" stop-opacity="0.95"/>
    </linearGradient>
  </defs>
  <title>onenote</title>
  <g id="g18980">
    <path id="path18724" d="M3,23.25V0.75H16.5L21,5.25v18H3Z" transform="translate(0 0)" style="fill:url(#linear-gradient)"/>
    <rect id="rect18726" width="24" height="24" style="fill:none"/>
    <rect id="rect18736" x="3.75" y="23.25" width="17.25" height="0.75" style="fill:#818181;opacity:0.5;isolation:isolate"/>
    <rect id="rect18738" x="21" y="6" width="0.75" height="18" style="fill:#818181;opacity:0.5;isolation:isolate"/>
    <rect id="rect18740" x="16.5" y="6" width="4.5" height="0.75" style="fill:#818181;opacity:0.5;isolation:isolate"/>
    <rect id="rect18742" x="13.5" y="11.25" width="5.25" height="0.75" style="fill:#818181;opacity:0.800000011920929;isolation:isolate"/>
    <rect id="rect18744" x="13.5" y="9" width="5.25" height="0.75" style="fill:#818181;opacity:0.800000011920929;isolation:isolate"/>
    <rect id="rect18748" x="13.5" y="13.5" width="4.5" height="0.75" style="fill:#818181;opacity:0.800000011920929;isolation:isolate"/>
    <rect id="rect18750" x="6" y="20.25" width="12" height="0.75" style="fill:#818181;opacity:0.800000011920929;isolation:isolate"/>
    <path id="path18764" d="M3,23.25L3.75,24V23.25H3Z" transform="translate(0 0)" style="fill:#818181;opacity:0.5;isolation:isolate"/>
    <path id="path18766" d="M21.75,6L21,5.25V6h0.75Z" transform="translate(0 0)" style="fill:#818181;opacity:0.5;isolation:isolate"/>
    <path id="path18768" d="M15.75,6L16.5,6.75V6H15.75Z" transform="translate(0 0)" style="fill:#818181;opacity:0.5;isolation:isolate"/>
    <rect id="rect18732" x="15.1" y="7.21" width="0.86" height="13.04" style="fill:#818181;opacity:0.5;isolation:isolate"/>
    <rect id="rect18734" x="3.11" y="19.38" width="11.99" height="0.87" style="fill:#818181;opacity:0.5;isolation:isolate"/>
    <path id="path18770" d="M16,7.21L15.1,6.34V7.21H16Z" transform="translate(0 0)" style="fill:#818181;opacity:0.5;isolation:isolate"/>
    <path id="path18772" d="M2.25,19.38l0.86,0.87V19.38H2.25Z" transform="translate(0 0)" style="fill:#818181;opacity:0.5;isolation:isolate"/>
    <path id="path18774" d="M15.75,0.75H16.5L21,5.25V6H15.75V0.75Z" transform="translate(0 0)" style="fill:url(#linear-gradient-2)"/>
    <rect id="rect18829" x="13.5" y="15.75" width="4.5" height="0.75" style="fill:#818181;opacity:0.800000011920929;isolation:isolate"/>
    <rect id="rect18831" x="13.5" y="18" width="4.5" height="0.75" style="fill:#818181;opacity:0.800000011920929;isolation:isolate"/>
    <rect id="rect18730" x="2.25" y="6.34" width="12.85" height="13.04" style="fill:url(#linear-gradient-3)"/>
    <g id="text18762" style="isolation:isolate">
      <g style="isolation:isolate">
        <path d="M9.47,16.85L7.07,10.4q0.12,0.95.19,1.67T7.32,13.8v3H5.57V8.53H8L10.48,15a19.48,19.48,0,0,1-.26-3.1V8.53H12v8.32H9.47Z" transform="translate(0 0)" style="fill:#fff"/>
      </g>
    </g>
  </g>
</svg>
