<?xml version="1.0"?>
<svg xmlns="http://www.w3.org/2000/svg" xmlns:xlink="http://www.w3.org/1999/xlink" id="Layer_1" data-name="Layer 1" viewBox="0 0 24 24" width="24" height="24">
  <defs>
    <linearGradient id="linear-gradient" x1="-248.82" y1="383.07" x2="-248.96" y2="375.42" gradientTransform="matrix(2.83, 0, 0, -2.83, 717.51, 1086.72)" gradientUnits="userSpaceOnUse">
      <stop offset="0" stop-color="#fff"/>
      <stop offset="1" stop-color="#e2e2e2"/>
    </linearGradient>
    <linearGradient id="linear-gradient-2" x1="-218.73" y1="382.31" x2="-219.52" y2="381.52" gradientTransform="matrix(2.83, 0, 0, -2.83, 638.76, 1086.72)" gradientUnits="userSpaceOnUse">
      <stop offset="0" stop-color="#b6772a"/>
      <stop offset="1" stop-color="#f4c117"/>
    </linearGradient>
  </defs>
  <title>draw</title>
  <g id="g19078">
    <path id="path12625" d="M3,23.25V0.75H16.5L21,5.25v18H3Z" style="fill:url(#linear-gradient)"/>
    <rect id="rect13395" width="24" height="24" style="fill:none"/>
    <rect id="rect13397" x="3.75" y="23.25" width="17.25" height="0.75" style="fill:#818181;opacity:0.5;isolation:isolate"/>
    <rect id="rect13399" x="21" y="6" width="0.75" height="18" style="fill:#818181;opacity:0.5;isolation:isolate"/>
    <rect id="rect13401" x="16.5" y="6" width="4.5" height="0.75" style="fill:#818181;opacity:0.5;isolation:isolate"/>
    <rect id="rect13403" width="24" height="24" style="fill:none"/>
    <path id="path13405" d="M21.75,6L21,5.25V6h0.75Z" style="fill:#818181;opacity:0.5;isolation:isolate"/>
    <path id="path13407" d="M15.75,6L16.5,6.75V6H15.75Z" style="fill:#818181;opacity:0.5;isolation:isolate"/>
    <path id="path13409" d="M12,9.63L7.06,19.52h9.89l-0.45-.91Z" style="fill:#bd8f2d"/>
    <path id="path13609" d="M15.75,0.75H16.5L21,5.25V6H15.75V0.75Z" style="fill:url(#linear-gradient-2)"/>
    <path id="path13641" d="M3,23.25L3.75,24V23.25H3Z" style="fill:#818181;opacity:0.5;isolation:isolate"/>
    <circle id="circle13649" cx="10.75" cy="10.51" r="3.84" style="fill:#bd8f2d;opacity:0.5;isolation:isolate"/>
  </g>
</svg>
