<?xml version="1.0"?>
<svg xmlns="http://www.w3.org/2000/svg" xmlns:xlink="http://www.w3.org/1999/xlink" id="Layer_1" data-name="Layer 1" viewBox="0 0 24 24" width="24" height="24">
  <defs>
    <linearGradient id="linear-gradient" x1="-248.63" y1="355.39" x2="-248.77" y2="347.74" gradientTransform="matrix(2.83, 0, 0, -2.83, 716.99, 1008.27)" gradientUnits="userSpaceOnUse">
      <stop offset="0" stop-color="#fff"/>
      <stop offset="1" stop-color="#e2e2e2"/>
    </linearGradient>
    <linearGradient id="linear-gradient-2" x1="-218.54" y1="354.64" x2="-219.34" y2="353.84" gradientTransform="matrix(2.83, 0, 0, -2.83, 638.24, 1008.27)" gradientUnits="userSpaceOnUse">
      <stop offset="0" stop-color="#1b6935"/>
      <stop offset="1" stop-color="#5cba47"/>
    </linearGradient>
  </defs>
  <title>calc</title>
  <g id="g19436">
    <path id="path12641" d="M3,23.25V0.75H16.5L21,5.25v18H3Z" style="fill:url(#linear-gradient)"/>
    <rect id="rect13111" width="24" height="24" style="fill:none"/>
    <rect id="rect13113" x="21" y="6" width="0.75" height="18" style="fill:#818181;opacity:0.5;isolation:isolate"/>
    <rect id="rect13115" x="3.75" y="23.25" width="17.25" height="0.75" style="fill:#818181;opacity:0.5;isolation:isolate"/>
    <rect id="rect13117" x="5.25" y="9" width="13.5" height="0.75" style="fill:#387f3d;opacity:0.800000011920929;isolation:isolate"/>
    <rect id="rect13119" x="5.25" y="11.25" width="13.5" height="0.75" style="fill:#387f3d;opacity:0.800000011920929;isolation:isolate"/>
    <rect id="rect13121" x="5.25" y="6.75" width="13.5" height="0.75" style="fill:#387f3d;opacity:0.800000011920929;isolation:isolate"/>
    <rect id="rect13123" x="5.25" y="4.5" width="10.5" height="0.75" style="fill:#387f3d;opacity:0.800000011920929;isolation:isolate"/>
    <rect id="rect13125" width="24" height="24" style="fill:none"/>
    <rect id="rect13127" x="18" y="13.5" width="0.75" height="7.5" style="fill:#387f3d;opacity:0.800000011920929;isolation:isolate"/>
    <rect id="rect13129" x="6" y="20.25" width="12" height="0.75" style="fill:#387f3d;opacity:0.800000011920929;isolation:isolate"/>
    <rect id="rect13131" x="6" y="13.5" width="12" height="0.75" style="fill:#387f3d;opacity:0.800000011920929;isolation:isolate"/>
    <rect id="rect13133" x="6" y="16.5" width="0.75" height="3.75" style="fill:#387f3d;opacity:0.800000011920929;isolation:isolate"/>
    <rect id="rect13135" x="15" y="14.25" width="0.75" height="6" style="fill:#387f3d;opacity:0.800000011920929;isolation:isolate"/>
    <rect id="rect13137" x="12" y="16.5" width="0.75" height="3.75" style="fill:#387f3d;opacity:0.800000011920929;isolation:isolate"/>
    <rect id="rect13139" x="9" y="16.5" width="0.75" height="3.75" style="fill:#387f3d;opacity:0.800000011920929;isolation:isolate"/>
    <rect id="rect13141" x="15.75" y="15.75" width="2.25" height="0.75" style="fill:#387f3d;opacity:0.800000011920929;isolation:isolate"/>
    <rect id="rect13143" x="15.75" y="18" width="2.25" height="0.75" style="fill:#387f3d;opacity:0.800000011920929;isolation:isolate"/>
    <rect id="rect13145" x="12.75" y="18" width="2.25" height="0.75" style="fill:#387f3d;opacity:0.800000011920929;isolation:isolate"/>
    <rect id="rect13147" x="9.75" y="18" width="2.25" height="0.75" style="fill:#387f3d;opacity:0.800000011920929;isolation:isolate"/>
    <rect id="rect13149" x="6.75" y="18" width="2.25" height="0.75" style="fill:#387f3d;opacity:0.800000011920929;isolation:isolate"/>
    <rect id="rect13151" x="6" y="15.75" width="9" height="0.75" style="fill:#387f3d;opacity:0.800000011920929;isolation:isolate"/>
    <rect id="rect13153" x="6" y="14.25" width="0.75" height="1.5" style="fill:#387f3d;opacity:0.800000011920929;isolation:isolate"/>
    <rect id="rect13155" x="9" y="14.25" width="0.75" height="1.5" style="fill:#387f3d;opacity:0.800000011920929;isolation:isolate"/>
    <rect id="rect13157" x="12" y="14.25" width="0.75" height="1.5" style="fill:#387f3d;opacity:0.800000011920929;isolation:isolate"/>
    <rect id="rect13159" x="16.5" y="6" width="4.5" height="0.75" style="fill:#818181;opacity:0.5;isolation:isolate"/>
    <path id="path13161" d="M16.5,1.5l3.75,3.75H19.5l-3-3V1.5Z" style="fill:#010101;fill-opacity:0"/>
    <path id="path13163" d="M21.75,6L21,5.25V6h0.75Z" style="fill:#818181;opacity:0.5;isolation:isolate"/>
    <path id="path13165" d="M15.75,6L16.5,6.75V6H15.75Z" style="fill:#818181;opacity:0.5;isolation:isolate"/>
    <path id="path13603" d="M15.75,0.75H16.5L21,5.25V6H15.75V0.75Z" style="fill:url(#linear-gradient-2)"/>
    <path id="path13617" d="M3,23.25L3.75,24V23.25H3Z" style="fill:#818181;opacity:0.5;isolation:isolate"/>
  </g>
</svg>
