<?xml version="1.0"?>
<svg xmlns="http://www.w3.org/2000/svg" xmlns:xlink="http://www.w3.org/1999/xlink" id="Layer_1" data-name="Layer 1" viewBox="0 0 24 24" width="24" height="24">
  <defs>
    <linearGradient id="linear-gradient" x1="-248.7" y1="364.55" x2="-248.84" y2="356.9" gradientTransform="matrix(2.83, 0, 0, -2.83, 717.19, 1034.24)" gradientUnits="userSpaceOnUse">
      <stop offset="0" stop-color="#fff"/>
      <stop offset="1" stop-color="#e2e2e2"/>
    </linearGradient>
    <linearGradient id="linear-gradient-2" x1="-218.61" y1="363.8" x2="-219.41" y2="363" gradientTransform="matrix(2.83, 0, 0, -2.83, 638.44, 1034.24)" gradientUnits="userSpaceOnUse">
      <stop offset="0" stop-color="#ae1f23"/>
      <stop offset="1" stop-color="#e31e26" stop-opacity="0.98"/>
    </linearGradient>
  </defs>
  <title>present</title>
  <g id="g19277">
    <path id="path12635" d="M3,23.25V0.75H16.5L21,5.25v18H3Z" style="fill:url(#linear-gradient)"/>
    <rect id="rect13054" width="24" height="24" style="fill:none"/>
    <rect id="rect13056" x="3.75" y="23.25" width="17.25" height="0.75" style="fill:#818181;opacity:0.5;isolation:isolate"/>
    <rect id="rect13058" x="21" y="6" width="0.75" height="18" style="fill:#818181;opacity:0.5;isolation:isolate"/>
    <rect id="rect13060" x="16.5" y="6" width="4.5" height="0.75" style="fill:#818181;opacity:0.5;isolation:isolate"/>
    <rect id="rect13078" x="5.25" y="9" width="13.5" height="0.75" style="fill:#973637;opacity:0.800000011920929;isolation:isolate"/>
    <rect id="rect13080" x="5.25" y="11.25" width="13.5" height="0.75" style="fill:#973637;opacity:0.800000011920929;isolation:isolate"/>
    <rect id="rect13082" x="5.25" y="6.75" width="13.5" height="0.75" style="fill:#973637;opacity:0.800000011920929;isolation:isolate"/>
    <rect id="rect13084" x="5.25" y="4.5" width="10.5" height="0.75" style="fill:#973637;opacity:0.800000011920929;isolation:isolate"/>
    <rect id="rect13086" width="24" height="24" style="fill:none"/>
    <rect id="rect13088" x="18" y="13.5" width="0.75" height="7.5" style="fill:#973637;opacity:0.800000011920929;isolation:isolate"/>
    <rect id="rect13090" x="6" y="13.5" width="12" height="0.75" style="fill:#973637;opacity:0.800000011920929;isolation:isolate"/>
    <rect id="rect13092" x="6" y="20.25" width="12" height="0.75" style="fill:#973637;opacity:0.800000011920929;isolation:isolate"/>
    <rect id="rect13094" x="5.25" y="13.5" width="0.75" height="7.5" style="fill:#973637;opacity:0.800000011920929;isolation:isolate"/>
    <rect id="rect13096" x="13.5" y="16.5" width="0.75" height="3" style="fill:#973637;opacity:0.800000011920929;isolation:isolate"/>
    <rect id="rect13098" x="12" y="18" width="0.75" height="1.5" style="fill:#973637;opacity:0.800000011920929;isolation:isolate"/>
    <rect id="rect13101" x="15" y="17.25" width="0.75" height="2.25" style="fill:#973637;opacity:0.800000011920929;isolation:isolate"/>
    <rect id="rect13103" x="16.5" y="15" width="0.75" height="4.5" style="fill:#973637;opacity:0.800000011920929;isolation:isolate"/>
    <path id="path13106" d="M21.75,6L21,5.25V6h0.75Z" style="fill:#818181;opacity:0.5;isolation:isolate"/>
    <path id="path13108" d="M15.75,6L16.5,6.75V6H15.75Z" style="fill:#818181;opacity:0.5;isolation:isolate"/>
    <path id="path13605" d="M15.75,0.75H16.5L21,5.25V6H15.75V0.75Z" style="fill:url(#linear-gradient-2)"/>
    <path id="path13619" d="M3,23.25L3.75,24V23.25H3Z" style="fill:#818181;opacity:0.5;isolation:isolate"/>
    <path id="path13651" d="M9,15a2.25,2.25,0,0,0-2.25,2.25h0A2.25,2.25,0,0,0,9,19.5H9a2.25,2.25,0,0,0,2.25-2.25h0A2.25,2.25,0,0,0,9,15H9Zm0,0.75a1.51,1.51,0,0,1,1.51,1.5h0A1.51,1.51,0,0,1,9,18.76H9a1.51,1.51,0,0,1-1.51-1.5h0A1.51,1.51,0,0,1,9,15.74H9Z" style="fill:#973637;opacity:0.800000011920929;isolation:isolate"/>
  </g>
</svg>
