<?xml version="1.0"?>
<svg xmlns="http://www.w3.org/2000/svg" xmlns:xlink="http://www.w3.org/1999/xlink" id="Layer_1" data-name="Layer 1" viewBox="0 0 24 24" width="24" height="24">
  <defs>
    <linearGradient id="linear-gradient" x1="-248.8" y1="377" x2="-248.94" y2="369.35" gradientTransform="matrix(2.83, 0, 0, -2.83, 717.46, 1069.52)" gradientUnits="userSpaceOnUse">
      <stop offset="0" stop-color="#fff"/>
      <stop offset="1" stop-color="#e2e2e2"/>
    </linearGradient>
    <linearGradient id="linear-gradient-2" x1="-218.71" y1="376.24" x2="-219.5" y2="375.45" gradientTransform="matrix(2.83, 0, 0, -2.83, 638.71, 1069.52)" gradientUnits="userSpaceOnUse">
      <stop offset="0" stop-color="#333332"/>
      <stop offset="1" stop-color="#757575" stop-opacity="0.98"/>
    </linearGradient>
  </defs>
  <title>openoffice_math</title>
  <g id="g19252">
    <path id="path12627" d="M3,23.25V0.75H16.5L21,5.25v18H3Z" style="fill:url(#linear-gradient)"/>
    <rect id="rect13273" width="24" height="24" style="fill:none"/>
    <rect id="rect13275" x="3.75" y="23.25" width="17.25" height="0.75" style="fill:#818181;opacity:0.5;isolation:isolate"/>
    <rect id="rect13277" x="21" y="6" width="0.75" height="18" style="fill:#818181;opacity:0.5;isolation:isolate"/>
    <rect id="rect13279" x="16.5" y="6" width="4.5" height="0.75" style="fill:#818181;opacity:0.5;isolation:isolate"/>
    <rect id="rect13281" x="5.25" y="9" width="13.5" height="0.75" style="fill:#818181;opacity:0.800000011920929;isolation:isolate"/>
    <rect id="rect13283" x="5.25" y="11.25" width="13.5" height="0.75" style="fill:#818181;opacity:0.800000011920929;isolation:isolate"/>
    <rect id="rect13285" x="5.25" y="6.75" width="13.5" height="0.75" style="fill:#818181;opacity:0.800000011920929;isolation:isolate"/>
    <rect id="rect13287" x="5.25" y="4.5" width="10.5" height="0.75" style="fill:#818181;opacity:0.800000011920929;isolation:isolate"/>
    <rect id="rect13289" width="24" height="24" style="fill:none"/>
    <path id="path13291" d="M21.75,6L21,5.25V6h0.75Z" style="fill:#818181;opacity:0.5;isolation:isolate"/>
    <path id="path13293" d="M15.75,6L16.5,6.75V6H15.75Z" style="fill:#818181;opacity:0.5;isolation:isolate"/>
    <g id="text13297" style="isolation:isolate">
      <g style="isolation:isolate">
        <path d="M11.52,14.56l-2,7H8.6L7.1,17.42l0.73-.24L9,20.68l1.89-6.81h2.24v0.69H11.52Z" style="fill:#4d4d4d"/>
        <path d="M15.08,21.54l-1.16-2-1.18,2H11.81L13.46,19,12,16.79h1l1,1.74,1-1.74h0.94L14.44,19l1.65,2.54h-1Z" style="fill:#4d4d4d"/>
      </g>
    </g>
    <path id="path13607" d="M15.75,0.75H16.5L21,5.25V6H15.75V0.75Z" style="fill:url(#linear-gradient-2)"/>
  </g>
</svg>
