<?xml version="1.0" encoding="utf-8"?>
<!-- Generator: Adobe Illustrator 19.2.1, SVG Export Plug-In . SVG Version: 6.00 Build 0)  -->
<svg version="1.1" id="Layer_1" xmlns="http://www.w3.org/2000/svg" xmlns:xlink="http://www.w3.org/1999/xlink" x="0px" y="0px"
   width="24"
   height="24"
	 viewBox="0 0 24 24" style="enable-background:new 0 0 24 24;" xml:space="preserve">
<style type="text/css">
	.st0{fill:url(#path6087_1_);}
	.st1{opacity:0.5;fill:#818181;enable-background:new    ;}
	.st2{fill:url(#path6103_1_);}
	.st3{fill:#F89A1C;}
</style>
<title>pages</title>
<linearGradient id="path6087_1_" gradientUnits="userSpaceOnUse" x1="-98.9444" y1="-58.9864" x2="-99.0844" y2="-51.3364" gradientTransform="matrix(2.83 0 0 2.83 291.81 167.74)">
	<stop  offset="0" style="stop-color:#FFFFFF"/>
	<stop  offset="1" style="stop-color:#E2E2E2"/>
</linearGradient>
<path id="path6087" class="st0" d="M2.6,22.9V0.4h13.5l4.5,4.5v18H2.6z"/>
<rect id="rect6091" x="3.4" y="22.9" class="st1" width="17.2" height="0.8"/>
<rect id="rect6093" x="20.6" y="5.6" class="st1" width="0.8" height="18"/>
<rect id="rect6095" x="16.1" y="5.6" class="st1" width="4.5" height="0.8"/>
<path id="path6097" class="st1" d="M21.4,5.6l-0.8-0.8v0.8H21.4z"/>
<path id="path6099" class="st1" d="M15.4,5.6l0.8,0.8V5.6H15.4z"/>
<path id="path6101" class="st1" d="M2.6,22.9l0.8,0.8v-0.8H2.6z"/>
<linearGradient id="path6103_1_" gradientUnits="userSpaceOnUse" x1="-69.8425" y1="-57.2776" x2="-68.7725" y2="-58.3476" gradientTransform="matrix(2.83 0 0 2.83 213.06 167.74)">
	<stop  offset="0" style="stop-color:#FFFFFF"/>
	<stop  offset="1" style="stop-color:#E2E2E2"/>
</linearGradient>
<path id="path6103" class="st2" d="M15.4,0.4h0.8l4.5,4.5v0.8h-5.2V0.4H15.4z"/>
<rect id="rect6159" x="2.6" y="21.4" class="st3" width="18" height="1.5"/>
<rect id="rect6161" x="2.6" y="0.4" class="st3" width="12.8" height="1.5"/>
<rect id="rect6163" x="4.1" y="5.6" class="st3" width="9.8" height="1.5"/>
<rect id="rect6165" x="4.1" y="9.4" class="st3" width="15" height="0.8"/>
<rect id="rect6167" x="4.1" y="11.6" class="st3" width="15" height="0.8"/>
<rect id="rect6169" x="4.1" y="13.9" class="st3" width="15" height="0.8"/>
<rect id="rect6171" x="4.1" y="16" class="st3" width="15" height="0.8"/>
<rect id="rect6173" x="4.1" y="18.4" class="st3" width="15" height="0.8"/>
</svg>
