<?xml version="1.0"?>
<svg xmlns="http://www.w3.org/2000/svg" xmlns:xlink="http://www.w3.org/1999/xlink" id="Layer_1" data-name="Layer 1" viewBox="0 0 24 24" width="24" height="24">
  <defs>
    <linearGradient id="linear-gradient" x1="-230.22" y1="346.27" x2="-230.36" y2="338.62" gradientTransform="matrix(2.83, 0, 0, -2.83, 664.79, 982.42)" gradientUnits="userSpaceOnUse">
      <stop offset="0" stop-color="#fff"/>
      <stop offset="1" stop-color="#e2e2e2"/>
    </linearGradient>
    <linearGradient id="linear-gradient-2" x1="-187.47" y1="281.6" x2="-187.47" y2="286.25" gradientTransform="matrix(2.5, 0, 0, -2.83, 477.73, 817.42)" gradientUnits="userSpaceOnUse">
      <stop offset="0" stop-color="#0a1f26"/>
      <stop offset="1" stop-color="#165f78"/>
    </linearGradient>
    <linearGradient id="linear-gradient-3" x1="-201.18" y1="344.45" x2="-200.12" y2="345.53" gradientTransform="matrix(2.83, 0, 0, -2.83, 586.04, 982.42)" xlink:href="#linear-gradient"/>
  </defs>
  <title>photoshop</title>
  <g id="g18972">
    <path id="path12656" d="M3,23.25V0.75H16.5L21,5.25v18H3Z" style="fill:url(#linear-gradient)"/>
    <rect id="rect13167" width="24" height="24" style="fill:none"/>
    <rect id="rect13177" x="2.25" y="6" width="13.17" height="13.17" style="fill:url(#linear-gradient-2)"/>
    <rect id="rect13179" x="15.42" y="6.88" width="0.88" height="13.17" style="fill:#818181;opacity:0.5;isolation:isolate"/>
    <rect id="rect13181" x="3.13" y="19.17" width="12.29" height="0.88" style="fill:#818181;opacity:0.5;isolation:isolate"/>
    <rect id="rect13183" x="3.75" y="23.25" width="17.25" height="0.75" style="fill:#818181;opacity:0.5;isolation:isolate"/>
    <rect id="rect13185" x="21" y="6" width="0.75" height="18" style="fill:#818181;opacity:0.5;isolation:isolate"/>
    <rect id="rect13187" x="16.5" y="6" width="4.5" height="0.75" style="fill:#818181;opacity:0.5;isolation:isolate"/>
    <g id="text13191" style="isolation:isolate">
      <g style="isolation:isolate">
        <path d="M8.32,9.45a2.09,2.09,0,0,1,.8,1.78,2.24,2.24,0,0,1-.79,1.86,3.27,3.27,0,0,1-2.1.63H5.45v2.43H3.72V8.84H6.08A3.68,3.68,0,0,1,8.32,9.45ZM7,12.18a1.23,1.23,0,0,0,.32-1,1.08,1.08,0,0,0-1.29-1.15H5.45v2.39H6.09A1.35,1.35,0,0,0,7,12.18Z" style="fill:#3fc7f4"/>
        <path d="M13,10.55a3,3,0,0,1,.93.51L13.32,12A2.41,2.41,0,0,0,12,11.56a1.07,1.07,0,0,0-.55.11,0.35,0.35,0,0,0-.18.31,0.4,0.4,0,0,0,.08.26,0.85,0.85,0,0,0,.32.21,6.88,6.88,0,0,0,.75.25,3.14,3.14,0,0,1,1.3.66,1.48,1.48,0,0,1,.43,1.12,1.55,1.55,0,0,1-.33,1,2.05,2.05,0,0,1-.9.64,3.46,3.46,0,0,1-1.26.22,3.8,3.8,0,0,1-1.31-.22,3,3,0,0,1-1-.61l0.82-.92a2.49,2.49,0,0,0,.7.41,2.1,2.1,0,0,0,.77.15A1.14,1.14,0,0,0,12.21,15a0.43,0.43,0,0,0,.22-0.38,0.55,0.55,0,0,0-.08-0.32A0.73,0.73,0,0,0,12,14.08a7.43,7.43,0,0,0-.77-0.25A2.74,2.74,0,0,1,10,13.15a1.5,1.5,0,0,1-.41-1.07,1.44,1.44,0,0,1,.28-0.87,1.89,1.89,0,0,1,.8-0.61,3,3,0,0,1,1.21-.23A3.48,3.48,0,0,1,13,10.55Z" style="fill:#3fc7f4"/>
      </g>
    </g>
    <path id="path13193" d="M3,23.25L3.75,24V23.25H3Z" style="fill:#818181;opacity:0.5;isolation:isolate"/>
    <path id="path13195" d="M21.75,6L21,5.25V6h0.75Z" style="fill:#818181;opacity:0.5;isolation:isolate"/>
    <path id="path13613" d="M15.75,0.75H16.5L21,5.25V6H15.75V0.75Z" style="fill:url(#linear-gradient-3)"/>
    <path id="path13805" d="M2.25,19.17l0.88,0.88V19.17H2.25Z" style="fill:#818181;opacity:0.5;isolation:isolate"/>
    <path id="path13807" d="M16.3,6.88L15.42,6V6.88H16.3Z" style="fill:#818181;opacity:0.5;isolation:isolate"/>
    <path id="path13809" d="M15.75,6L16.5,6.75V6H15.75Z" style="fill:#818181;opacity:0.5;isolation:isolate"/>
  </g>
</svg>
