<?xml version="1.0"?>
<svg xmlns="http://www.w3.org/2000/svg" xmlns:xlink="http://www.w3.org/1999/xlink" id="Layer_1" data-name="Layer 1" viewBox="0 0 24 24" width="24" height="24">
  <defs>
    <linearGradient id="linear-gradient" x1="-239.54" y1="365.16" x2="-239.68" y2="357.5" gradientTransform="matrix(2.83, 0, 0, -2.83, 691.22, 1035.95)" gradientUnits="userSpaceOnUse">
      <stop offset="0" stop-color="#fff"/>
      <stop offset="1" stop-color="#e2e2e2"/>
    </linearGradient>
    <linearGradient id="linear-gradient-2" x1="-210.51" y1="363.34" x2="-209.44" y2="364.41" gradientTransform="matrix(2.83, 0, 0, -2.83, 612.47, 1035.95)" xlink:href="#linear-gradient"/>
    <linearGradient id="linear-gradient-3" x1="-181.73" y1="282.5" x2="-181.73" y2="287.14" gradientTransform="matrix(2.83, 0, 0, -2.83, 523.97, 819.95)" gradientUnits="userSpaceOnUse">
      <stop offset="0" stop-color="#d71f27"/>
      <stop offset="1" stop-color="#f04949"/>
    </linearGradient>
  </defs>
  <title>powerpoint</title>
  <g id="g19305">
    <path id="path12633" d="M3,23.25V0.75H16.5L21,5.25v18H3Z" style="fill:url(#linear-gradient)"/>
    <rect id="rect12660" width="24" height="24" style="fill:none"/>
    <path id="path14178" d="M9,15A2.25,2.25,0,0,0,6.8,17.25h0A2.25,2.25,0,0,0,9,19.5H9a2.25,2.25,0,0,0,2.25-2.25h0A2.25,2.25,0,0,0,9,15H9Zm0,0.75a1.51,1.51,0,0,1,1.51,1.5h0A1.51,1.51,0,0,1,9,18.75H9a1.51,1.51,0,0,1-1.51-1.5h0A1.51,1.51,0,0,1,9,15.74H9Z" style="fill:#818181;opacity:0.800000011920929;isolation:isolate"/>
    <rect id="rect12700" x="3.75" y="23.25" width="17.25" height="0.75" style="fill:#818181;opacity:0.5;isolation:isolate"/>
    <rect id="rect12702" x="21" y="6" width="0.75" height="18" style="fill:#818181;opacity:0.5;isolation:isolate"/>
    <rect id="rect12704" x="16.5" y="6" width="4.5" height="0.75" style="fill:#818181;opacity:0.5;isolation:isolate"/>
    <rect id="rect12706" x="13.5" y="11.25" width="5.25" height="0.75" style="fill:#818181;opacity:0.800000011920929;isolation:isolate"/>
    <rect id="rect12708" x="13.5" y="9" width="5.25" height="0.75" style="fill:#818181;opacity:0.800000011920929;isolation:isolate"/>
    <rect id="rect12712" x="18" y="13.5" width="0.75" height="7.5" style="fill:#818181;opacity:0.800000011920929;isolation:isolate"/>
    <rect id="rect12714" x="13.5" y="13.5" width="4.5" height="0.75" style="fill:#818181;opacity:0.800000011920929;isolation:isolate"/>
    <rect id="rect12716" x="6" y="20.25" width="12" height="0.75" style="fill:#818181;opacity:0.800000011920929;isolation:isolate"/>
    <rect id="rect12718" x="5.25" y="19.5" width="0.75" height="1.5" style="fill:#818181;opacity:0.800000011920929;isolation:isolate"/>
    <rect id="rect12728" x="13.5" y="16.5" width="0.75" height="3" style="fill:#818181;opacity:0.800000011920929;isolation:isolate"/>
    <rect id="rect12733" x="15" y="17.25" width="0.75" height="2.25" style="fill:#818181;opacity:0.800000011920929;isolation:isolate"/>
    <rect id="rect12735" x="16.5" y="15" width="0.75" height="4.5" style="fill:#818181;opacity:0.800000011920929;isolation:isolate"/>
    <path id="path12742" d="M3,23.25L3.75,24V23.25H3Z" style="fill:#818181;opacity:0.5;isolation:isolate"/>
    <path id="path12744" d="M21.75,6L21,5.25V6h0.75Z" style="fill:#818181;opacity:0.5;isolation:isolate"/>
    <path id="path12746" d="M15.75,6L16.5,6.75V6H15.75Z" style="fill:#818181;opacity:0.5;isolation:isolate"/>
    <path id="path13637" d="M15.75,0.75H16.5L21,5.25V6H15.75V0.75Z" style="fill:url(#linear-gradient-2)"/>
    <rect id="rect12694" x="2.25" y="6" width="13.16" height="13.16" style="fill:url(#linear-gradient-3)"/>
    <rect id="rect12696" x="15.41" y="6.88" width="0.88" height="13.16" style="fill:#818181;opacity:0.5;isolation:isolate"/>
    <rect id="rect12698" x="3.13" y="19.16" width="12.28" height="0.88" style="fill:#818181;opacity:0.5;isolation:isolate"/>
    <g id="text12739" style="isolation:isolate">
      <g style="isolation:isolate">
        <path d="M10.73,9.53a2.08,2.08,0,0,1,.8,1.78,2.24,2.24,0,0,1-.78,1.86,3.27,3.27,0,0,1-2.1.63H7.86v2.43H6.13V8.93H8.49A3.67,3.67,0,0,1,10.73,9.53Zm-1.3,2.73a1.23,1.23,0,0,0,.32-1,1.08,1.08,0,0,0-1.28-1.15H7.86v2.39H8.5A1.35,1.35,0,0,0,9.43,12.26Z" style="fill:#fff"/>
      </g>
    </g>
    <path id="path12748" d="M16.29,6.88L15.41,6V6.88h0.88Z" style="fill:#818181;opacity:0.5;isolation:isolate"/>
    <path id="path12750" d="M2.25,19.16L3.13,20V19.16H2.25Z" style="fill:#818181;opacity:0.5;isolation:isolate"/>
  </g>
</svg>
