<svg id="Layer_1" data-name="Layer 1" xmlns="http://www.w3.org/2000/svg" xmlns:xlink="http://www.w3.org/1999/xlink" viewBox="0 0 24 24" width="24" height="24">
  <defs>
    <linearGradient id="linear-gradient" x1="-54.79" y1="-103.94" x2="-54.93" y2="-96.29" gradientTransform="translate(167.25 295.61) scale(2.83)" gradientUnits="userSpaceOnUse">
      <stop offset="0" stop-color="#fff"/>
      <stop offset="1" stop-color="#e2e2e2"/>
    </linearGradient>
    <linearGradient id="linear-gradient-2" x1="-25.78" y1="-102.24" x2="-24.72" y2="-103.32" gradientTransform="translate(88.5 295.61) scale(2.83)" xlink:href="#linear-gradient"/>
    <linearGradient id="linear-gradient-3" x1="3.13" y1="6.79" x2="3.13" y2="2.12" gradientTransform="translate(0 0.11) scale(2.83)" gradientUnits="userSpaceOnUse">
      <stop offset="0" stop-color="#06675a"/>
      <stop offset="1" stop-color="#088373"/>
    </linearGradient>
  </defs>
  <title>publisher</title>
  <g id="g24240">
    <path id="path24041" d="M3,23.25V0.75H16.5L21,5.25v18H3Z" style="fill: url(#linear-gradient)"/>
    <rect id="rect24043" width="24" height="24" style="fill: none"/>
    <rect id="rect24053" x="3.75" y="23.25" width="17.25" height="0.75" style="fill: gray;opacity: 0.5;isolation: isolate"/>
    <rect id="rect24055" x="21" y="6" width="0.75" height="18" style="fill: gray;opacity: 0.5;isolation: isolate"/>
    <rect id="rect24057" x="16.5" y="6" width="4.5" height="0.75" style="fill: gray;opacity: 0.5;isolation: isolate"/>
    <path id="path24063" d="M21.75,6L21,5.25V6h0.75Z" style="fill: gray;opacity: 0.5;isolation: isolate"/>
    <path id="path24065" d="M3,23.25L3.75,24V23.25H3Z" style="fill: gray;opacity: 0.5;isolation: isolate"/>
    <path id="path24067" d="M15.75,6L16.5,6.75V6H15.75Z" style="fill: gray;opacity: 0.5;isolation: isolate"/>
    <path id="path24077" d="M15.75,0.75H16.5L21,5.25V6H15.75V0.75Z" style="fill: url(#linear-gradient-2)"/>
    <rect id="rect24117" x="13.5" y="11.25" width="3.75" height="1.5" style="fill: #949494"/>
    <rect id="rect24119" x="13.5" y="16.5" width="3.75" height="0.75" style="fill: #949494"/>
    <rect id="rect24123" x="13.5" y="18.75" width="3.75" height="0.75" style="fill: #949494"/>
    <rect id="rect24127" x="13.5" y="14.25" width="3.75" height="0.75" style="fill: #949494"/>
    <path id="rect24210" d="M13.5,9V9.75H18V21H6V19.5H5.25v2.25h13.5V9H13.5Z" style="fill: #949494"/>
    <rect id="rect24047" x="2.25" y="6.01" width="13.21" height="13.21" style="fill: url(#linear-gradient-3)"/>
    <rect id="rect24049" x="15.46" y="6.89" width="0.88" height="13.21" style="fill: gray;opacity: 0.5;isolation: isolate"/>
    <rect id="rect24051" x="3.13" y="19.22" width="12.33" height="0.88" style="fill: gray;opacity: 0.5;isolation: isolate"/>
    <g id="text24061">
      <path d="M11.15,9.45a2.37,2.37,0,0,1,.92,2,2.54,2.54,0,0,1-.89,2.12,3.73,3.73,0,0,1-2.45.76H7.89v2.77h-2V8.76H8.58A4.17,4.17,0,0,1,11.15,9.45Zm-1.48,3.1a1.33,1.33,0,0,0,.39-1.13A1.22,1.22,0,0,0,8.6,10.09H7.89v2.66H8.62A1.53,1.53,0,0,0,9.68,12.55Z" style="fill: #fff"/>
    </g>
    <path id="path24069" d="M16.34,6.89L15.46,6V7Z" style="fill: gray;opacity: 0.5;isolation: isolate"/>
    <path id="path24071" d="M2.25,19.22L3.13,20.1V19.37Z" style="fill: gray;opacity: 0.5;isolation: isolate"/>
  </g>
</svg>
