<?xml version="1.0"?>
<svg xmlns="http://www.w3.org/2000/svg" xmlns:xlink="http://www.w3.org/1999/xlink" id="Layer_1" data-name="Layer 1" viewBox="0 0 24 24" width="24" height="24">
  <defs>
    <linearGradient id="linear-gradient" x1="-220.89" y1="355.97" x2="-221.03" y2="348.32" gradientTransform="matrix(2.83, 0, 0, -2.83, 638.34, 1009.91)" gradientUnits="userSpaceOnUse">
      <stop offset="0" stop-color="#fff"/>
      <stop offset="1" stop-color="#e2e2e2"/>
    </linearGradient>
    <linearGradient id="linear-gradient-2" x1="-191.85" y1="354.15" x2="-190.79" y2="355.23" gradientTransform="matrix(2.83, 0, 0, -2.83, 559.59, 1009.91)" xlink:href="#linear-gradient"/>
  </defs>
  <title>html</title>
  <g id="g19354">
    <path id="path12647" d="M3,23.25V0.75H16.5L21,5.25v18H3Z" style="fill:url(#linear-gradient)"/>
    <rect id="rect12984" width="24" height="24" style="fill:none"/>
    <rect id="rect12986" x="3.75" y="23.25" width="17.25" height="0.75" style="fill:#818181;opacity:0.5;isolation:isolate"/>
    <rect id="rect12990" x="21" y="6" width="0.75" height="18" style="fill:#818181;opacity:0.5;isolation:isolate"/>
    <rect id="rect12992" x="16.5" y="6" width="4.5" height="0.75" style="fill:#818181;opacity:0.5;isolation:isolate"/>
    <path id="path12994" d="M21.75,6L21,5.25V6h0.75Z" style="fill:#818181;opacity:0.5;isolation:isolate"/>
    <path id="path12996" d="M15.75,6L16.5,6.75V6H15.75Z" style="fill:#818181;opacity:0.5;isolation:isolate"/>
    <path id="path12998" d="M3,23.25L3.75,24V23.25H3Z" style="fill:#818181;opacity:0.5;isolation:isolate"/>
    <g id="text13002" style="isolation:isolate">
      <g style="isolation:isolate">
        <path d="M6.48,14.59l3.16,1.28L9.14,17l-4-1.73V13.9l4-1.74,0.5,1.11Z" style="fill:#4d4d4d"/>
        <path d="M12.11,19l-1.39-.32,2.36-9,1.38,0.31Z" style="fill:#4d4d4d"/>
        <path d="M20,15.29L16,17l-0.5-1.15,3.16-1.28-3.16-1.32L16,12.16l4,1.74v1.39Z" style="fill:#4d4d4d"/>
      </g>
    </g>
    <path id="path13621" d="M15.75,0.75H16.5L21,5.25V6H15.75V0.75Z" style="fill:url(#linear-gradient-2)"/>
  </g>
</svg>
