<?xml version="1.0"?>
<svg xmlns="http://www.w3.org/2000/svg" xmlns:xlink="http://www.w3.org/1999/xlink" id="Layer_1" data-name="Layer 1" viewBox="0 0 24 24" width="24" height="24">
  <defs>
    <linearGradient id="linear-gradient" x1="-239.5" y1="346.85" x2="-239.64" y2="339.2" gradientTransform="matrix(2.83, 0, 0, -2.83, 691.11, 984.06)" gradientUnits="userSpaceOnUse">
      <stop offset="0" stop-color="#fff"/>
      <stop offset="1" stop-color="#e2e2e2"/>
    </linearGradient>
    <linearGradient id="linear-gradient-2" x1="-181.72" y1="282.72" x2="-181.72" y2="287.31" gradientTransform="matrix(2.83, 0, 0, -2.83, 523.86, 820.56)" gradientUnits="userSpaceOnUse">
      <stop offset="0" stop-color="#2d5999"/>
      <stop offset="1" stop-color="#4476bb"/>
    </linearGradient>
    <linearGradient id="linear-gradient-3" x1="-210.47" y1="345.03" x2="-209.4" y2="346.11" gradientTransform="matrix(2.83, 0, 0, -2.83, 612.36, 984.06)" xlink:href="#linear-gradient"/>
  </defs>
  <title>word</title>
  <g id="g18996">
    <path id="path12654" d="M3,23.25V0.75H16.5L21,5.25v18H3Z" style="fill:url(#linear-gradient)"/>
    <rect id="rect12895" width="24" height="24" style="fill:none"/>
    <rect id="rect12897" x="5.25" y="18" width="13.5" height="0.75" style="fill:#848484;opacity:0.800000011920929;isolation:isolate"/>
    <rect id="rect12922" x="3.75" y="23.25" width="17.25" height="0.75" style="fill:#818181;opacity:0.5;isolation:isolate"/>
    <rect id="rect12926" x="21" y="6" width="0.75" height="18" style="fill:#818181;opacity:0.5;isolation:isolate"/>
    <rect id="rect12928" x="16.5" y="6" width="4.5" height="0.75" style="fill:#818181;opacity:0.5;isolation:isolate"/>
    <rect id="rect12930" x="5.25" y="20.25" width="13.5" height="0.75" style="fill:#848484;opacity:0.800000011920929;isolation:isolate"/>
    <rect id="rect12932" x="13.5" y="15.75" width="5.25" height="0.75" style="fill:#848484;opacity:0.800000011920929;isolation:isolate"/>
    <rect id="rect12945" x="13.5" y="13.5" width="5.25" height="0.75" style="fill:#848484;opacity:0.800000011920929;isolation:isolate"/>
    <rect id="rect12947" x="13.5" y="11.25" width="5.25" height="0.75" style="fill:#848484;opacity:0.800000011920929;isolation:isolate"/>
    <rect id="rect12949" x="13.5" y="9" width="5.25" height="0.75" style="fill:#848484;opacity:0.800000011920929;isolation:isolate"/>
    <path id="path12958" d="M21.75,6L21,5.25V6h0.75Z" style="fill:#818181;opacity:0.5;isolation:isolate"/>
    <path id="path12960" d="M3,23.25L3.75,24V23.25H3Z" style="fill:#818181;opacity:0.5;isolation:isolate"/>
    <path id="path12962" d="M15.75,6L16.5,6.75V6H15.75Z" style="fill:#818181;opacity:0.5;isolation:isolate"/>
    <path id="path12964" d="M16.13,7l-0.87-.87V7h0.87Z" style="fill:#818181;opacity:0.5;isolation:isolate"/>
    <rect id="rect12916" x="2.25" y="6.13" width="13.02" height="13.02" style="fill:url(#linear-gradient-2)"/>
    <rect id="rect12918" x="15.27" y="7" width="0.87" height="13.02" style="fill:#818181;opacity:0.5;isolation:isolate"/>
    <rect id="rect12920" x="3.12" y="19.15" width="12.15" height="0.87" style="fill:#818181;opacity:0.5;isolation:isolate"/>
    <g id="text12955" style="isolation:isolate">
      <g style="isolation:isolate">
        <path d="M9.64,16.54L8.75,11,7.8,16.54H5.63L4.45,9.32H6.15l0.72,5.93,1-5.93H9.66l0.94,5.93,0.84-5.93h1.62l-1.21,7.22H9.64Z" style="fill:#fff"/>
      </g>
    </g>
    <path id="path12966" d="M2.25,19.15L3.12,20V19.15H2.25Z" style="fill:#818181;opacity:0.5;isolation:isolate"/>
    <path id="path13615" d="M15.75,0.75H16.5L21,5.25V6H15.75V0.75Z" style="fill:url(#linear-gradient-3)"/>
  </g>
</svg>
