<?xml version="1.0" encoding="utf-8"?>
<!-- Generator: Adobe Illustrator 20.0.0, SVG Export Plug-In . SVG Version: 6.00 Build 0)  -->
<svg version="1.1" id="Ebene_1" xmlns="http://www.w3.org/2000/svg" xmlns:xlink="http://www.w3.org/1999/xlink" x="0px" y="0px"
	 viewBox="0 0 984.4 998" width="984.4" height="998" style="enable-background:new 0 0 984.4 998;" xml:space="preserve">
<style type="text/css">
	.st0{fill:#020203;}
</style>
<path class="st0" d="M582,499.6c0-0.2,0-0.4,0-0.6s0-0.4,0-0.6L974.4,106c6.7-6.7,10-14.3,10-23c0-8.7-3.3-16.3-10-23l-50-50
	c-6.7-6.7-14.3-10-23-10s-16.3,3.3-23,10L492.2,396.2L106,10C99.3,3.3,91.7,0,83,0S66.7,3.3,60,10L10,60C3.3,66.7,0,74.3,0,83
	c0,8.7,3.3,16.3,10,23l392.4,392.4c0,0.2,0,0.4,0,0.6s0,0.4,0,0.6L10,892c-6.7,6.7-10,14.3-10,23s3.3,16.3,10,23l50,50
	c6.7,6.7,14.3,10,23,10s16.3-3.3,23-10l386.2-386.2L878.4,988c6.7,6.7,14.3,10,23,10s16.3-3.3,23-10l50-50c6.7-6.7,10-14.3,10-23
	s-3.3-16.3-10-23L582,499.6z"/>
</svg>
