<?xml version="1.0" encoding="utf-8"?>
<!-- Generator: Adobe Illustrator 19.0.0, SVG Export Plug-In . SVG Version: 6.00 Build 0)  -->
<svg version="1.1" id="Ebene_1" xmlns="http://www.w3.org/2000/svg" xmlns:xlink="http://www.w3.org/1999/xlink" x="0px" y="0px"
	 viewBox="0 0 48 48" width="48" height="48" style="enable-background:new 0 0 48 48;" xml:space="preserve">
<style type="text/css">
	.st0{fill:#205D91;}
</style>
<path id="XMLID_6_" class="st0" d="M24,0C10.7,0,0,10.7,0,24s10.7,24,24,24s24-10.7,24-24S37.3,0,24,0z M39.7,17.5l-15.2,16l-2.9,3
	c-0.4,0.4-0.9,0.6-1.4,0.6s-1-0.2-1.4-0.6l-2.9-3l-7.6-8c-0.4-0.4-0.6-0.9-0.6-1.5c0-0.6,0.2-1.1,0.6-1.5l2.9-3
	c0.4-0.4,0.9-0.6,1.4-0.6s1,0.2,1.4,0.6l6.2,6.5L34,11.5c0.4-0.4,0.9-0.6,1.4-0.6s1,0.2,1.4,0.6l2.9,3c0.4,0.4,0.6,0.9,0.6,1.5
	C40.2,16.6,40.1,17.1,39.7,17.5z"/>
</svg>
