<?xml version="1.0" encoding="utf-8"?>
<!-- Generator: Adobe Illustrator 19.0.0, SVG Export Plug-In . SVG Version: 6.00 Build 0)  -->
<svg version="1.1" id="Ebene_1" xmlns="http://www.w3.org/2000/svg" xmlns:xlink="http://www.w3.org/1999/xlink" x="0px" y="0px"
	 viewBox="0 0 48 48" width="48" height="48" style="enable-background:new 0 0 48 48;" xml:space="preserve">
<style type="text/css">
	.st0{fill:#6AB863;}
</style>
<path id="XMLID_8_" class="st0" d="M39.2,5.4c-0.1,0-0.1-0.1-0.2-0.1c-0.6-0.5-1.1-0.9-1.7-1.3C37.2,4,37.1,3.9,37,3.9
	c-0.6-0.4-1.2-0.7-1.8-1.1c-0.1,0-0.2-0.1-0.3-0.1c-0.6-0.3-1.2-0.6-1.9-0.9c-0.1,0-0.2-0.1-0.2-0.1c-0.7-0.3-1.3-0.5-2-0.7
	c-0.1,0-0.1,0-0.2,0c-0.7-0.2-1.4-0.4-2.1-0.5c0,0-0.1,0-0.1,0c-0.7-0.1-1.4-0.2-2.2-0.3c0,0-0.1,0-0.1,0C25.5,0,24.7,0,24,0
	s-1.5,0-2.2,0.1c0,0-0.1,0-0.1,0c-0.7,0.1-1.4,0.2-2.2,0.3c0,0-0.1,0-0.1,0C18.7,0.6,18,0.8,17.3,1c-0.1,0-0.1,0-0.2,0
	c-0.7,0.2-1.3,0.4-2,0.7c-0.1,0-0.2,0.1-0.2,0.1c-0.6,0.3-1.3,0.6-1.9,0.9c-0.1,0-0.2,0.1-0.3,0.1c-0.6,0.3-1.2,0.7-1.8,1.1
	C10.9,3.9,10.8,4,10.7,4C10.1,4.4,9.5,4.8,9,5.3c-0.1,0-0.1,0.1-0.2,0.1c-1.2,1-2.4,2.1-3.4,3.4c0,0.1-0.1,0.1-0.1,0.2
	C4.8,9.5,4.4,10.1,4,10.7C4,10.8,3.9,10.9,3.9,11c-0.4,0.6-0.7,1.2-1.1,1.8c0,0.1-0.1,0.2-0.1,0.3c-0.3,0.6-0.6,1.2-0.9,1.9
	c0,0.1-0.1,0.2-0.1,0.2c-0.3,0.7-0.5,1.3-0.7,2c0,0.1,0,0.1,0,0.2c-0.2,0.7-0.4,1.4-0.5,2.1c0,0,0,0.1,0,0.1
	c-0.1,0.7-0.2,1.4-0.3,2.2c0,0,0,0.1,0,0.1C0,22.5,0,23.3,0,24v0v0c0,0.7,0,1.5,0.1,2.2c0,0,0,0.1,0,0.1c0.1,0.7,0.2,1.4,0.3,2.2
	c0,0,0,0.1,0,0.1C0.6,29.3,0.8,30,1,30.7c0,0.1,0,0.1,0,0.2c0.2,0.7,0.4,1.3,0.7,2c0,0.1,0.1,0.2,0.1,0.2c0.3,0.6,0.6,1.3,0.9,1.9
	c0,0.1,0.1,0.2,0.1,0.3c0.3,0.6,0.7,1.2,1.1,1.8C3.9,37.1,4,37.2,4,37.3c0.4,0.6,0.8,1.2,1.3,1.7c0,0.1,0.1,0.1,0.1,0.2
	C9.8,44.6,16.5,48,24,48c13.3,0,24-10.7,24-24C48,16.5,44.6,9.8,39.2,5.4z M24,42.9c-5.2,0-10-2.1-13.4-5.5l26.8-26.8
	c3.5,3.4,5.7,8.2,5.7,13.4C43.1,34.4,34.5,42.9,24,42.9z"/>
</svg>
