<?xml version="1.0" encoding="utf-8"?>
<!-- Generator: Adobe Illustrator 15.0.0, SVG Export Plug-In . SVG Version: 6.00 Build 0)  -->
<!DOCTYPE svg PUBLIC "-//W3C//DTD SVG 1.1//EN" "http://www.w3.org/Graphics/SVG/1.1/DTD/svg11.dtd">
<svg version="1.1" id="Layer_1" xmlns="http://www.w3.org/2000/svg" xmlns:xlink="http://www.w3.org/1999/xlink" x="0px" y="0px"
	 width="48px" height="48px" viewBox="0 0 48 48" enable-background="new 0 0 48 48" xml:space="preserve">
<g>
	<defs>
		<rect id="SVGID_1_" width="48" height="48"/>
	</defs>
	<clipPath id="SVGID_2_">
		<use xlink:href="#SVGID_1_"  overflow="visible"/>
	</clipPath>
	<path clip-path="url(#SVGID_2_)" fill="#BABABA" d="M24,0C10.745,0,0,10.745,0,24s10.745,24,24,24s24-10.745,24-24S37.255,0,24,0
		 M24,42.875C13.472,42.875,4.938,34.424,4.938,24S13.472,5.125,24,5.125c10.528,0,19.062,8.451,19.062,18.875
		S34.528,42.875,24,42.875"/>
</g>
<rect x="21.75" y="8.25" fill="#BABABA" width="4.5" height="17.5"/>
<rect x="25.578" y="21.547" transform="matrix(-0.6027 0.798 -0.798 -0.6027 66.5151 21.8111)" fill="#BABABA" width="4.499" height="11.836"/>
</svg>
