<?xml version="1.0" encoding="utf-8"?>
<!-- Generator: Adobe Illustrator 19.2.1, SVG Export Plug-In . SVG Version: 6.00 Build 0)  -->
<svg version="1.1" id="Ebene_1" xmlns="http://www.w3.org/2000/svg" xmlns:xlink="http://www.w3.org/1999/xlink" x="0px" y="0px"
	 viewBox="0 0 48 48" width="48" height="48" style="enable-background:new 0 0 48 48;" xml:space="preserve">
<style type="text/css">
	.st0{fill:#205E92;}
</style>
<path class="st0" d="M24,0C10.7,0,0,10.7,0,24s10.7,24,24,24s24-10.7,24-24S37.3,0,24,0z M32.3,35.4c0,0.3-0.1,0.5-0.3,0.7
	c-0.2,0.2-0.4,0.3-0.7,0.3h-2.1c-0.3,0-0.5-0.1-0.7-0.3c-0.2-0.2-0.3-0.4-0.3-0.7V24.4c0,0.1-0.1,0.2-0.2,0.3L16.5,36.2
	c-0.2,0.2-0.4,0.3-0.5,0.2c-0.1-0.1-0.2-0.2-0.2-0.5V12.1c0-0.3,0.1-0.5,0.2-0.5c0.1-0.1,0.3,0,0.5,0.2l11.4,11.4
	c0.1,0.1,0.2,0.2,0.2,0.3V12.6c0-0.3,0.1-0.5,0.3-0.7c0.2-0.2,0.4-0.3,0.7-0.3h2.1c0.3,0,0.5,0.1,0.7,0.3c0.2,0.2,0.3,0.4,0.3,0.7
	V35.4z"/>
</svg>
