<?xml version="1.0" encoding="UTF-8"?>
<svg width="10px" height="10px" viewBox="0 0 10 10" version="1.1" xmlns="http://www.w3.org/2000/svg" xmlns:xlink="http://www.w3.org/1999/xlink">
    <title>relation</title>
    <g id="relation" stroke="none" stroke-width="1" fill="none" fill-rule="evenodd">
        <g id="noun_258144_cc" transform="translate(3.000000, 2.000000)" fill="#000000" fill-rule="nonzero">
            <path d="M3.66033639,0 C2.93248579,0 1.43432665,0 0.706476059,0 C0.512382567,0 0.439597508,0.113292427 0.591233049,0.279898938 C0.791391962,0.499819533 1.02794341,0.76638995 1.3918687,1.11293149 C1.3918687,1.11293149 -0.251860557,2.23919151 0.0332142594,4.09185591 C0.318289076,5.93785605 2.28348568,6.1644409 2.33200905,5.91786327 C2.38659785,5.66462137 1.19170979,5.39805095 1.48891545,4.5650184 C1.78005569,3.75197862 2.04693424,3.44542264 2.80511194,2.66570417 C3.18116808,3.07888832 3.48443916,3.4520869 3.72099061,3.71199306 C3.87869157,3.89859235 4,3.88526383 4,3.63202194 C4,2.83231068 4,1.13292427 4,0.333213022 C4,0.0932996461 3.90901868,0 3.66033639,0 Z" id="Shape"></path>
        </g>
        <rect id="Rectangle" stroke="#000000" x="0.5" y="0.5" width="9" height="9"></rect>
    </g>
</svg>
