<?xml version="1.0" encoding="UTF-8" standalone="no"?>
<svg width="400px" height="400px" viewBox="0 0 400 400" version="1.1" xmlns="http://www.w3.org/2000/svg" xmlns:xlink="http://www.w3.org/1999/xlink">
    <title>Bumblebee Fallback Icon</title>
    <g id="Page-1" stroke="none" stroke-width="1" fill="none" fill-rule="evenodd">
        <g id="Artboard" fill="#E0E0E0">
            <path d="M225.455844,200.5 L256.921818,169.034026 C257.705114,168.25073 257.703237,166.986462 256.922303,166.205528 L234.294472,143.577697 C233.509714,142.79294 232.247176,142.79698 231.465974,143.578182 L200,175.044156 L168.534026,143.578182 C167.75073,142.794886 166.486462,142.796763 165.705528,143.577697 L143.077697,166.205528 C142.29294,166.990286 142.29698,168.252824 143.078182,169.034026 L174.544156,200.5 L143.078182,231.965974 C142.294886,232.74927 142.296763,234.013538 143.077697,234.794472 L165.705528,257.422303 C166.490286,258.20706 167.752824,258.20302 168.534026,257.421818 L200,225.955844 L231.465974,257.421818 C232.24927,258.205114 233.513538,258.203237 234.294472,257.422303 L256.922303,234.794472 C257.70706,234.009714 257.70302,232.747176 256.921818,231.965974 L225.455844,200.5 Z M200,300 C144.771525,300 100,255.228475 100,200 C100,144.771525 144.771525,100 200,100 C255.228475,100 300,144.771525 300,200 C300,255.228475 255.228475,300 200,300 Z" id="Combined-Shape"></path>
        </g>
    </g>
</svg>
