<?xml version="1.0" encoding="utf-8"?>
<!-- Generator: Adobe Illustrator 19.0.0, SVG Export Plug-In . SVG Version: 6.00 Build 0)  -->
<svg version="1.1" id="Capa_1" xmlns="http://www.w3.org/2000/svg" xmlns:xlink="http://www.w3.org/1999/xlink" x="0px" y="0px"
	 viewBox="22.3 442 200 200" style="enable-background:new 22.3 442 200 200;" xml:space="preserve">
<style type="text/css">
	.st0{fill:#E6E6E6;}
</style>
<g>
	<path class="st0" d="M157.8,506.9c-19.5-19.5-51.2-19.5-70.7,0c-19.5,19.5-19.5,51.2,0,70.7s51.2,19.5,70.7,0
		S177.4,526.4,157.8,506.9z M147.4,554.3c1.1,1.1,1.1,2.8,0,3.8l-9,9c-1.1,1.1-2.8,1.1-3.8,0l-12-12l-12,12c-1.1,1.1-2.8,1.1-3.8,0
		l-9-9c-1.1-1.1-1.1-2.8,0-3.8l12-12l-12-12c-1.1-1.1-1.1-2.8,0-3.8l9-9c1.1-1.1,2.8-1.1,3.8,0l12,12l12-12c1.1-1.1,2.8-1.1,3.8,0
		l9,9c1.1,1.1,1.1,2.8,0,3.8l-12,12L147.4,554.3z"/>
</g>
</svg>
