<?xml version="1.0" encoding="utf-8"?>
<!-- Generator: Adobe Illustrator 19.0.0, SVG Export Plug-In . SVG Version: 6.00 Build 0)  -->
<svg version="1.1" id="Capa_1" xmlns="http://www.w3.org/2000/svg" xmlns:xlink="http://www.w3.org/1999/xlink" x="0px" y="0px"
	 viewBox="59 -58 417 417" style="enable-background:new 59 -58 417 417;" xml:space="preserve">
<style type="text/css">
	.st0{fill:#E6E6E6;}
</style>
<g>
	<path class="st0" d="M414.9,3.1c-81.4-81.4-213.4-81.4-294.8,0s-81.4,213.4,0,294.8s213.4,81.4,294.8,0S496.3,84.5,414.9,3.1z
		 M371.5,200.8c4.5,4.5,4.5,11.7,0,16.1l-37.6,37.6c-4.5,4.5-11.7,4.5-16.1,0l-50.3-50.3l-50.3,50.3c-4.5,4.5-11.7,4.5-16.1,0
		l-37.6-37.6c-4.5-4.5-4.5-11.7,0-16.1l50.3-50.3l-50.3-50.3c-4.5-4.5-4.5-11.7,0-16.1l37.6-37.6c4.5-4.5,11.7-4.5,16.1,0l50.3,50.3
		l50.3-50.3c4.5-4.5,11.7-4.5,16.1,0l37.6,37.6c4.5,4.5,4.5,11.7,0,16.1l-50.3,50.3L371.5,200.8z"/>
</g>
</svg>
